<svg xmlns="http://www.w3.org/2000/svg" viewBox="0 0 120 120" fill="none" role="img" aria-label="caliban">
  <style>
    :root { color: #1b2330; }
    @media (prefers-color-scheme: dark) { :root { color: #e6edf3; } }
  </style>
  <circle cx="60" cy="60" r="44" stroke="currentColor" stroke-width="4"/>
  <g stroke="currentColor" stroke-width="9" stroke-linecap="round" transform="translate(120,0) scale(-1,1)">
    <path d="M60 56 C80 47 93 60 85 75" transform="rotate(0 60 60)"/>
    <path d="M60 56 C80 47 93 60 85 75" transform="rotate(72 60 60)"/>
    <path d="M60 56 C80 47 93 60 85 75" transform="rotate(144 60 60)"/>
    <path d="M60 56 C80 47 93 60 85 75" transform="rotate(216 60 60)"/>
    <path d="M60 56 C80 47 93 60 85 75" transform="rotate(288 60 60)"/>
  </g>
  <circle cx="60" cy="60" r="7" fill="currentColor"/>
</svg>
