<svg xmlns="http://www.w3.org/2000/svg" viewBox="0 0 120 120" role="img" aria-label="caliban">
  <rect width="120" height="120" rx="24" fill="#0d1117"/>
  <circle cx="60" cy="60" r="44" fill="none" stroke="#e6edf3" stroke-width="4"/>
  <g fill="none" stroke="#e6edf3" stroke-width="9" stroke-linecap="round" transform="translate(120,0) scale(-1,1)">
    <path d="M60 56 C80 47 93 60 85 75" transform="rotate(0 60 60)"/>
    <path d="M60 56 C80 47 93 60 85 75" transform="rotate(72 60 60)"/>
    <path d="M60 56 C80 47 93 60 85 75" transform="rotate(144 60 60)"/>
    <path d="M60 56 C80 47 93 60 85 75" transform="rotate(216 60 60)"/>
    <path d="M60 56 C80 47 93 60 85 75" transform="rotate(288 60 60)"/>
  </g>
  <circle cx="60" cy="60" r="7" fill="#e6edf3"/>
</svg>
