<svg xmlns="http://www.w3.org/2000/svg" viewBox="0 0 450 120" fill="none" role="img" aria-label="caliban">
  <g>
    <circle cx="60" cy="60" r="44" stroke="currentColor" stroke-width="3"/>
    <g stroke="currentColor" stroke-width="7" stroke-linecap="round" transform="translate(120,0) scale(-1,1)">
      <path d="M60 56 C80 47 93 60 85 75" transform="rotate(0 60 60)"/>
      <path d="M60 56 C80 47 93 60 85 75" transform="rotate(72 60 60)"/>
      <path d="M60 56 C80 47 93 60 85 75" transform="rotate(144 60 60)"/>
      <path d="M60 56 C80 47 93 60 85 75" transform="rotate(216 60 60)"/>
      <path d="M60 56 C80 47 93 60 85 75" transform="rotate(288 60 60)"/>
    </g>
    <circle cx="60" cy="60" r="6.5" fill="currentColor"/>
  </g>
  <text x="150" y="80" fill="currentColor"
        font-family="ui-monospace, SFMono-Regular, Menlo, Consolas, 'Liberation Mono', monospace"
        font-size="62" font-weight="600" letter-spacing="1">caliban</text>
</svg>
